<svg xmlns="http://www.w3.org/2000/svg" preserveAspectRatio="xMinYMin meet" viewBox="0 0 680 660"><style>.lineCount { fill: #BABABA; font-family: consolas; font-size: 12px; }</style><style>.global { fill: #8B9189; font-family: consolas; font-size: 12px; }</style><style>.keyword { fill: #e0932d; font-family: consolas; font-size: 12px; }</style><style>.base { fill: white; font-family: consolas; font-size: 12px; }</style><rect width="100%" height="100%" fill="#0070dd" /><rect x="8" y="8" width="97.7%" height="98%" fill="#242925" /><rect x="8" y="8" width="3%" height="98%" fill="#2c302d"/><text x="15" y="20" class="lineCount">1</text><text x="15" y="40" class="lineCount">2</text><text x="15" y="60" class="lineCount">3</text><text x="15" y="80" class="lineCount">4</text><text x="15" y="100" class="lineCount">5</text><text x="15" y="120" class="lineCount">6</text><text x="15" y="140" class="lineCount">7</text><text x="15" y="160" class="lineCount">8</text><text x="15" y="180" class="lineCount">9</text><text x="12" y="200" class="lineCount">10</text><text x="12" y="220" class="lineCount">11</text><text x="12" y="240" class="lineCount">12</text><text x="12" y="260" class="lineCount">13</text><text x="12" y="280" class="lineCount">14</text><text x="12" y="300" class="lineCount">15</text><text x="12" y="320" class="lineCount">16</text><text x="12" y="340" class="lineCount">17</text><text x="12" y="360" class="lineCount">18</text><text x="12" y="380" class="lineCount">19</text><text x="12" y="400" class="lineCount">20</text><text x="12" y="420" class="lineCount">21</text><text x="12" y="440" class="lineCount">22</text><text x="12" y="460" class="lineCount">23</text><text x="12" y="480" class="lineCount">24</text><text x="12" y="500" class="lineCount">25</text><text x="12" y="520" class="lineCount">26</text><text x="12" y="540" class="lineCount">27</text><text x="12" y="560" class="lineCount">28</text><text x="12" y="580" class="lineCount">29</text><text x="12" y="600" class="lineCount">30</text><text x="12" y="620" class="lineCount">31</text><text x="12" y="640" class="lineCount">32</text><text x="30" y="20" class="keyword">using</text><text x="70" y="20" class="base">System;</text><text x="30" y="40" class="keyword">using</text><text x="70" y="40" class="base">System.IO;</text><text x="30" y="60" class="keyword">using</text><text x="70" y="60" class="base">GameUtils.Server.WebsocketCalls;</text><text x="30" y="80" class="keyword">using</text><text x="70" y="80" class="base">GameUtils.InventoryManagement;</text><text x="30" y="100" class="keyword">using</text><text x="70" y="100" class="base">GameUtils.SingletonCalls.GlobalItemManager;</text><text x="30" y="140" class="keyword">struct</text><text x="75" y="140" class="base">ItemCache</text><text x="30" y="160" class="base">{</text><text x="50" y="180" class="keyword">private item[4]</text><text x="155" y="180" class="base">cache;</text><text x="50" y="200" class="keyword">private item</text><text x="140" y="200" class="base">cache[0] = GIM.Fetch("None");</text><text x="50" y="220" class="keyword">private item</text><text x="140" y="220" class="base">cache[1] = GIM.Fetch("Bicycle");</text><text x="50" y="240" class="keyword">private item</text><text x="140" y="240" class="base">cache[2] = GIM.Fetch("Service");</text><text x="50" y="260" class="keyword">private item</text><text x="140" y="260" class="base">cache[3] = GIM.Fetch("Pilot Helm");</text><text x="50" y="280" class="keyword">public item</text><text x="130" y="280" class="base">Weapon {</text><text x="190" y="280" class="keyword">get</text><text x="215" y="280" class="base">=&gt; cache[0];}</text><text x="50" y="300" class="keyword">public item</text><text x="130" y="300" class="base">Vehicle {</text><text x="195" y="300" class="keyword">get</text><text x="225" y="300" class="base">=&gt; cache[1];}</text><text x="50" y="320" class="keyword">public item</text><text x="130" y="320" class="base">Apparel {</text><text x="195" y="320" class="keyword">get</text><text x="220" y="320" class="base">=&gt; cache[2];}</text><text x="50" y="340" class="keyword">public item</text><text x="130" y="340" class="base">Helm {</text><text x="175" y="340" class="keyword">get</text><text x="200" y="340" class="base">=&gt; cache[3];}</text><text x="30" y="360" class="base">}</text><text x="40" y="360" class="lineCount">//DAY ONE UPLOAD ITEM CACHE</text><text x="30" y="400" class="keyword">void</text><text x="65" y="400" class="base">StoreCache(</text><text x="180" y="400" class="base">_uniqueCharacter,</text><text x="335" y="400" class="base">playerVault,</text><text x="485" y="400" class="base">items)</text><text x="137" y="400" class="keyword">Player</text><text x="295" y="400" class="keyword">Vault</text><text x="420" y="400" class="keyword">ItemCache</text><text x="30" y="420" class="base">{</text><text x="50" y="440" class="keyword">foreach</text><text x="100" y="440" class="base">(</text><text x="107" y="440" class="keyword">item</text><text x="140" y="440" class="base">gear</text><text x="172" y="440" class="keyword">in</text><text x="190" y="440" class="base">items.cache)</text><text x="50" y="460" class="base">{</text><text x="70" y="480" class="keyword">if</text><text x="90" y="480" class="base">(GIM.ValidateItem(gear))</text><text x="70" y="500" class="base">{playerVault.mainItemList.add(gear);}</text><text x="50" y="520" class="base">}</text><text x="50" y="540" class="keyword">Garage</text><text x="95" y="540" class="base">playerGarage = GetPlayerGarage(items.Vehicle, _uniqueCharacter,</text><text x="310" y="560" class="base">playerVault.residenceDeedList);</text><text x="50" y="580" class="keyword">if</text><text x="70" y="580" class="base">(playerGarage != null)</text><text x="50" y="600" class="base">{</text><text x="70" y="600" class="base">GIM.StoreInGarage(playerGarage, items.Vehicle);</text><text x="50" y="620" class="base">}</text><text x="30" y="640" class="base">}</text></svg>