<svg xmlns="http://www.w3.org/2000/svg" preserveAspectRatio="xMinYMin meet" viewBox="0 0 680 660"><style>.lineCount { fill: #BABABA; font-family: consolas; font-size: 12px; }</style><style>.global { fill: #8B9189; font-family: consolas; font-size: 12px; }</style><style>.keyword { fill: #e0932d; font-family: consolas; font-size: 12px; }</style><style>.base { fill: #a335ee; font-family: consolas; font-size: 12px; }</style><rect width="100%" height="100%" fill="#242925" /><rect x="8" y="8" width="97.7%" height="98%" fill="#242925" /><rect x="8" y="8" width="3%" height="98%" fill="#2c302d"/><text x="15" y="20" class="lineCount">1</text><text x="15" y="40" class="lineCount">2</text><text x="15" y="60" class="lineCount">3</text><text x="15" y="80" class="lineCount">4</text><text x="15" y="100" class="lineCount">5</text><text x="15" y="120" class="lineCount">6</text><text x="15" y="140" class="lineCount">7</text><text x="15" y="160" class="lineCount">8</text><text x="15" y="180" class="lineCount">9</text><text x="12" y="200" class="lineCount">10</text><text x="12" y="220" class="lineCount">11</text><text x="12" y="240" class="lineCount">12</text><text x="12" y="260" class="lineCount">13</text><text x="12" y="280" class="lineCount">14</text><text x="12" y="300" class="lineCount">15</text><text x="12" y="320" class="lineCount">16</text><text x="12" y="340" class="lineCount">17</text><text x="12" y="360" class="lineCount">18</text><text x="12" y="380" class="lineCount">19</text><text x="12" y="400" class="lineCount">20</text><text x="12" y="420" class="lineCount">21</text><text x="12" y="440" class="lineCount">22</text><text x="12" y="460" class="lineCount">23</text><text x="12" y="480" class="lineCount">24</text><text x="12" y="500" class="lineCount">25</text><text x="12" y="520" class="lineCount">26</text><text x="12" y="540" class="lineCount">27</text><text x="12" y="560" class="lineCount">28</text><text x="12" y="580" class="lineCount">29</text><text x="12" y="600" class="lineCount">30</text><text x="12" y="620" class="lineCount">31</text><text x="12" y="640" class="lineCount">32</text><text x="30" y="20" class="keyword">using</text><text x="70" y="20" class="base">System;</text><text x="30" y="40" class="keyword">using</text><text x="70" y="40" class="base">System.IO;</text><text x="30" y="60" class="keyword">using</text><text x="70" y="60" class="base">CurrencyGenerator.BytBuffer;</text><text x="30" y="80" class="keyword">using</text><text x="70" y="80" class="base">GameUtils.Server.WebsocketCalls;</text><text x="30" y="100" class="keyword">using</text><text x="70" y="100" class="base">GameUtils.InventoryManagement;</text><text x="30" y="140" class="keyword">struct</text><text x="80" y="140" class="base">VaultDepositBox {</text><text x="50" y="180" class="keyword">private int</text><text x="130" y="180" class="base">redeemableCreditAmount = NTBank.Instance.TotalSupply * 0.000439;</text><text x="50" y="160" class="keyword">private string</text><text x="150" y="160" class="base">creditMultiplier = "High";</text><text x="50" y="200" class="keyword">private string</text><text x="150" y="200" class="base">additionalItem = "None";</text><text x="50" y="220" class="keyword">public string</text><text x="140" y="220" class="base">CreditMultiplier {</text><text x="265" y="220" class="keyword">get</text><text x="295" y="220" class="base">=&gt; creditMultiplier;}</text><text x="50" y="240" class="keyword">public int</text><text x="125" y="240" class="base">Credits {</text><text x="195" y="240" class="keyword">get</text><text x="225" y="240" class="base">=&gt; credits;}</text><text x="50" y="260" class="keyword">public string</text><text x="145" y="260" class="base">AdditionalItem {</text><text x="260" y="260" class="keyword">get</text><text x="290" y="260" class="base">=&gt; additionalItem;}</text><text x="30" y="280" class="base">};</text><text x="70" y="280" class="lineCount">//DAY ONE UPLOAD WITHDRAWAL</text><text x="30" y="320" class="keyword">void</text><text x="65" y="320" class="base">ApplyCredits(</text><text x="150" y="320" class="keyword">player</text><text x="195" y="320" class="base">_uniqueCharacter)</text><text x="30" y="340" class="base">{</text><text x="50" y="360" class="keyword">Vault</text><text x="90" y="360" class="base">characterVault = CreateVault(_uniqueCharacter);</text><text x="50" y="380" class="base">characterVault.setAccountBalance(_uniqueCharacter.credits);</text><text x="50" y="400" class="keyword">VaultDepositBox</text><text x="155" y="400" class="base">_depositBox;</text><text x="50" y="420" class="base">StoreVault(characterVault, _depositBox);</text><text x="30" y="440" class="base">}</text><text x="30" y="480" class="keyword">void</text><text x="60" y="480" class="base">StoreVault(</text><text x="135" y="480" class="keyword">Vault</text><text x="175" y="480" class="base">_playerVault,</text><text x="265" y="480" class="keyword">VaultDepositBox</text><text x="370" y="480" class="base">_playerBox)</text><text x="30" y="500" class="base">{</text><text x="50" y="520" class="base">characterVault.mainItemList =</text><text x="250" y="520" class="keyword">new</text><text x="280" y="520" class="base">List&lt;item&gt;();</text><text x="50" y="540" class="base">characterVault.secondaryItemList =</text><text x="280" y="540" class="keyword">new</text><text x="310" y="540" class="base">List&lt;secondaryItem&gt;();</text><text x="50" y="560" class="global">if</text><text x="70" y="560" class="base">(_playerBox.AdditionalItem != "None")</text><text x="50" y="580" class="base">{characterVault.secondaryItemList.Add(_playerBox.AdditionalItem);}</text><text x="50" y="600" class="base">characterVault.residenceDeedList =</text><text x="285" y="600" class="keyword">new</text><text x="310" y="600" class="base">List&lt;deed&gt;();</text><text x="50" y="620" class="base">MainServer.StoreVault(characterVault);</text><text x="30" y="640" class="base">}</text></svg>